<svg xmlns="http://www.w3.org/2000/svg" xmlns:xlink="http://www.w3.org/1999/xlink" width="20.75" height="19" viewBox="0 0 20.75 19">
  <defs>
    <style>
      .cls-1 {
        fill: #35363a;
        fill-rule: evenodd;
        filter: url(#filter);
      }
    </style>
    <filter id="filter" x="949.938" y="580.5" width="20.75" height="19" filterUnits="userSpaceOnUse">
      <feFlood result="flood" flood-color="#fff"/>
      <feComposite result="composite" operator="in" in2="SourceGraphic"/>
      <feBlend result="blend" in2="SourceGraphic"/>
    </filter>
  </defs>
  <path id="google_" data-name="google+" class="cls-1" d="M970.681,583.987h-3.012l0-3h-1.028V584H963.6v0.981h3.044v2.99L967.655,588l0-3.019h3.028v-1Zm-10.726,7.445c-0.547-.377-1.592-1.291-1.592-1.829,0-.63.186-0.94,1.161-1.682a3.92,3.92,0,0,0,1.708-3.071,3.486,3.486,0,0,0-1.949-3.4H961.2l0.791-.329s-3.973-.622-5.485-0.622c-2.711,0-5.262,2-5.262,4.311a4.316,4.316,0,0,0,4.605,4.274c0.192,0,.378,0,0.56-0.017a2.349,2.349,0,0,0-.306,1.1,2.258,2.258,0,0,0,.823,1.625c-0.347,0-.682.01-1.048,0.01-3.358,0-5.942,2.079-5.942,4.237,0,2.124,2.833,3.453,6.191,3.453,3.828,0,5.942-2.113,5.942-4.237a4.073,4.073,0,0,0-2.114-3.822v0Zm-3.231-2.947h0c-1.558-.045-3.038-1.7-3.307-3.685s0.775-3.513,2.333-3.467,3.038,1.641,3.307,3.631S958.281,588.531,956.724,588.485Zm-0.61,10.067h0c-2.32,0-4-1.43-4-3.146,0-1.682,2.08-3.083,4.4-3.058a5.17,5.17,0,0,1,1.5.234c1.26,0.852,2.164,1.334,2.419,2.306a2.6,2.6,0,0,1,.073.606C960.514,597.21,959.377,598.552,956.114,598.552Z" transform="translate(-949.938 -580.5)"/>
</svg>
