<svg xmlns="http://www.w3.org/2000/svg" xmlns:xlink="http://www.w3.org/1999/xlink" width="18.25" height="18" viewBox="0 0 18.25 18">
  <defs>
    <style>
      .cls-1 {
        fill: #35363a;
        fill-rule: evenodd;
        filter: url(#filter);
      }
    </style>
    <filter id="filter" x="1016.31" y="580" width="18.25" height="18" filterUnits="userSpaceOnUse">
      <feFlood result="flood" flood-color="#fff"/>
      <feComposite result="composite" operator="in" in2="SourceGraphic"/>
      <feBlend result="blend" in2="SourceGraphic"/>
    </filter>
  </defs>
  <path id="linkedin" class="cls-1" d="M1030.91,597.993v-6.87c0-1.631-.75-2.745-2.2-2.745a2.32,2.32,0,0,0-2.14,1.475,2.848,2.848,0,0,0-.03.938v7.2h-3.65v-8.641a9.124,9.124,0,0,0-.73-3.6h3.65v1.441l0.18,0.019a4.458,4.458,0,0,1,3.97-2.032c2.63,0,4.6,1.749,4.6,5.478v7.337h-3.65Zm-14.59-12.243h4.38v12.242h-4.38V585.75Zm2.12-1.827a1.975,1.975,0,1,1,2.16-1.969A1.983,1.983,0,0,1,1018.44,583.923Z" transform="translate(-1016.31 -580)"/>
</svg>
