<svg xmlns="http://www.w3.org/2000/svg" xmlns:xlink="http://www.w3.org/1999/xlink" width="21.063" height="16.813" viewBox="0 0 21.063 16.813">
  <defs>
    <style>
      .cls-1 {
        fill: #35363a;
        fill-rule: evenodd;
        filter: url(#filter);
      }
    </style>
    <filter id="filter" x="883.031" y="581.531" width="21.063" height="16.813" filterUnits="userSpaceOnUse">
      <feFlood result="flood" flood-color="#fff"/>
      <feComposite result="composite" operator="in" in2="SourceGraphic"/>
      <feBlend result="blend" in2="SourceGraphic"/>
    </filter>
  </defs>
  <path id="twitter" class="cls-1" d="M904.094,583.509a8.8,8.8,0,0,1-2.483.669,4.274,4.274,0,0,0,1.9-2.349,8.733,8.733,0,0,1-2.745,1.03,4.349,4.349,0,0,0-3.156-1.341,4.284,4.284,0,0,0-4.322,4.246,4.177,4.177,0,0,0,.112.968,12.349,12.349,0,0,1-8.909-4.436,4.165,4.165,0,0,0-.585,2.134,4.224,4.224,0,0,0,1.923,3.534,4.36,4.36,0,0,1-1.958-.531v0.053a4.269,4.269,0,0,0,3.468,4.164,4.4,4.4,0,0,1-1.139.149,4.352,4.352,0,0,1-.813-0.077,4.317,4.317,0,0,0,4.037,2.949,8.77,8.77,0,0,1-5.369,1.817,9.239,9.239,0,0,1-1.031-.058,12.4,12.4,0,0,0,6.626,1.907,12.1,12.1,0,0,0,12.3-12.081c0-.184,0-0.366-0.012-0.549a8.711,8.711,0,0,0,2.157-2.2h0Z" transform="translate(-883.031 -581.531)"/>
</svg>
