<svg xmlns="http://www.w3.org/2000/svg" xmlns:xlink="http://www.w3.org/1999/xlink" width="19.69" height="22.781" viewBox="0 0 19.69 22.781">
  <defs>
    <style>
      .cls-1 {
        fill: #35363a;
        fill-rule: evenodd;
        filter: url(#filter);
      }
    </style>
    <filter id="filter" x="1081.19" y="578.219" width="19.69" height="22.781" filterUnits="userSpaceOnUse">
      <feFlood result="flood" flood-color="#fff"/>
      <feComposite result="composite" operator="in" in2="SourceGraphic"/>
      <feBlend result="blend" in2="SourceGraphic"/>
    </filter>
  </defs>
  <path id="youtube" class="cls-1" d="M1100.73,598.1a2.806,2.806,0,0,1-2.84,2.771q-3.36.136-6.87,0.128t-6.87-.128a2.806,2.806,0,0,1-2.84-2.771c-0.1-1.212-.14-2.424-0.13-3.635-0.01-1.211.03-2.424,0.13-3.635a2.805,2.805,0,0,1,2.84-2.771q3.36-.138,6.87-0.128,3.51-.006,6.87.128a2.805,2.805,0,0,1,2.84,2.771c0.1,1.211.14,2.424,0.13,3.635C1100.87,595.674,1100.83,596.886,1100.73,598.1Zm-13.9-8.143h-4.13V591.2h1.39v7.341h1.35V591.2h1.39v-1.246Zm3.39,2.252h-1.19v4.809a1.736,1.736,0,0,1-.37.341,0.632,0.632,0,0,1-.33.133,0.3,0.3,0,0,1-.25-0.1,0.558,0.558,0,0,1-.07-0.326v-4.856h-1.2V597.5a1.348,1.348,0,0,0,.22.849,0.714,0.714,0,0,0,.62.283,1.409,1.409,0,0,0,.69-0.2,2.625,2.625,0,0,0,.69-0.589v0.7h1.19v-6.335Zm4.6,1.508a1.964,1.964,0,0,0-.3-1.181,0.985,0.985,0,0,0-.86-0.407,1.093,1.093,0,0,0-.55.152,1.806,1.806,0,0,0-.51.44v-2.764h-1.21v8.587h1.21v-0.488a1.465,1.465,0,0,0,.51.429,1.354,1.354,0,0,0,.62.139,0.964,0.964,0,0,0,.81-0.358,1.636,1.636,0,0,0,.28-1.035v-3.514Zm4.42,2.562h-1.23v0.441a1.4,1.4,0,0,1-.12.723,0.491,0.491,0,0,1-.42.164,0.431,0.431,0,0,1-.4-0.194,1.416,1.416,0,0,1-.12-0.693v-1.195h2.29V593.91a2,2,0,0,0-.44-1.382,1.64,1.64,0,0,0-1.26-.481,1.747,1.747,0,0,0-1.31.519,1.839,1.839,0,0,0-.51,1.344v2.844a2.131,2.131,0,0,0,.46,1.436,1.607,1.607,0,0,0,1.27.523,1.731,1.731,0,0,0,1.34-.492,2.111,2.111,0,0,0,.45-1.467v-0.477Zm-2.29-2.379a0.935,0.935,0,0,1,.13-0.569,0.468,0.468,0,0,1,.41-0.172,0.441,0.441,0,0,1,.39.172,0.935,0.935,0,0,1,.13.569v0.642h-1.06V593.9Zm-3.78,3.728a0.636,0.636,0,0,1-.29-0.067,0.961,0.961,0,0,1-.28-0.223v-3.948a0.879,0.879,0,0,1,.24-0.192,0.551,0.551,0,0,1,.25-0.063,0.453,0.453,0,0,1,.38.166,0.831,0.831,0,0,1,.12.488v3.27a0.721,0.721,0,0,1-.1.437A0.386,0.386,0,0,1,1093.17,597.626Zm2.78-11.525a2.583,2.583,0,0,1-.69.588,1.4,1.4,0,0,1-.69.2,0.735,0.735,0,0,1-.63-0.282,1.418,1.418,0,0,1-.21-0.849v-5.294h1.2v4.855a0.556,0.556,0,0,0,.07.326,0.28,0.28,0,0,0,.24.1,0.676,0.676,0,0,0,.34-0.134,1.936,1.936,0,0,0,.37-0.34v-4.808h1.19V586.8h-1.19v-0.7Zm-4.98.86a1.671,1.671,0,0,1-1.25-.478,1.769,1.769,0,0,1-.47-1.285v-3.284a1.505,1.505,0,0,1,.48-1.172,1.87,1.87,0,0,1,1.3-.436,1.656,1.656,0,0,1,1.21.46,1.567,1.567,0,0,1,.48,1.183v3.272A1.614,1.614,0,0,1,1090.97,586.961Zm0.53-5.1a0.415,0.415,0,0,0-.15-0.334,0.533,0.533,0,0,0-.38-0.129,0.475,0.475,0,0,0-.35.129,0.408,0.408,0,0,0-.14.334v3.45a0.562,0.562,0,0,0,.13.4,0.441,0.441,0,0,0,.36.142,0.536,0.536,0,0,0,.39-0.145,0.57,0.57,0,0,0,.14-0.4v-3.45Zm-3.75,4.934h-1.35v-3.4l-1.6-5.184h1.35l0.88,3.433h0.08l0.83-3.433h1.37l-1.56,5.024V586.8Z" transform="translate(-1081.19 -578.219)"/>
</svg>
